<svg xmlns="http://www.w3.org/2000/svg" xmlns:xlink="http://www.w3.org/1999/xlink" width="1920" height="1080" viewBox="0 0 1920 1080">
  <defs>
    <clipPath id="clip-Web_1920_1">
      <rect width="1920" height="1080"/>
    </clipPath>
  </defs>
  <g id="Web_1920_1" data-name="Web 1920 – 1" clip-path="url(#clip-Web_1920_1)">
    <rect width="1920" height="1080" fill="#fff"/>
    <g id="Rectangle_1" data-name="Rectangle 1" transform="translate(-488)" fill="#fff" stroke="#707070" stroke-width="1">
      <rect width="2896" height="1080" stroke="none"/>
      <rect x="0.5" y="0.5" width="2895" height="1079" fill="none"/>
    </g>
    <path id="Path_3" data-name="Path 3" d="M741,15.653c406.988,0,891.035-213.678,891.035,101.994,0,130.423-489.6,238.954-678.59,394.783-97.239,80.176,98.042,233.4,35.4,281.988C804.624,937.312,456.576,1296.87,304.362,1296.87-102.626,1296.87,4.086,902.9,4.086,587.227S334.015,15.653,741,15.653Z" transform="translate(-459.74 -355.696)" fill="#2f2582" opacity="0.65"/>
    <path id="Path_4" data-name="Path 4" d="M720.735,422c326.259-280.77,431.154-856.871,584.3-659.176S1225.177,574.943,1225.177,885.9c0,436.736-274.265,790.78-612.589,790.78S0,1322.634,0,885.9,394.476,702.765,720.735,422Z" transform="translate(749.438 99.62)" fill="#2f2582" opacity="0.64"/>
    <path id="Path_2" data-name="Path 2" d="M498.5,0c275.314,0,602.755-166.359,602.755,79.408,0,101.541-331.2,186.038-459.043,307.359-65.779,62.422,66.323,181.717,23.95,219.543C541.537,717.56,306.094,997.494,203.127,997.494-72.187,997.494,0,690.767,0,445S223.186,0,498.5,0Z" transform="translate(-264 -275)" fill="#2f2582" opacity="0.4"/>
    <path id="Path_1" data-name="Path 1" d="M718.866,243.469C1044.279,34.343,1148.9-394.757,1301.652-247.507S1222,357.389,1222,589c0,325.3-273.554,589-611,589S0,914.3,0,589,393.453,452.6,718.866,243.469Z" transform="translate(785 491)" fill="#2f2582" opacity="0.4"/>
  </g>
</svg>
